<svg width="512" height="512" viewBox="0 0 512 512" fill="none" xmlns="http://www.w3.org/2000/svg">
<mask id="path-1-inside-1_0_1" fill="white">
<path d="M369.079 201.285C369.564 201.272 370.049 201.259 370.549 201.245C371.862 201.411 371.862 201.411 372.691 202.026C373.596 203.213 373.568 203.914 373.565 205.399C373.568 205.909 373.571 206.418 373.574 206.942C373.569 207.501 373.565 208.059 373.56 208.634C373.561 209.223 373.562 209.811 373.563 210.417C373.564 212.368 373.555 214.318 373.545 216.269C373.544 217.622 373.543 218.975 373.543 220.328C373.541 223.166 373.533 226.005 373.522 228.843C373.507 232.483 373.502 236.124 373.5 239.764C373.498 242.559 373.493 245.354 373.486 248.149C373.484 249.491 373.481 250.834 373.479 252.176C373.476 254.052 373.469 255.928 373.461 257.804C373.46 258.36 373.46 258.917 373.459 259.49C373.456 260.002 373.453 260.514 373.45 261.042C373.449 261.485 373.447 261.928 373.446 262.385C373.377 263.689 373.16 264.898 372.873 266.17C372.54 266.17 372.206 266.17 371.862 266.17C371.695 267.339 371.528 268.507 371.356 269.711C371.022 269.711 370.688 269.711 370.344 269.711C370.177 270.546 370.01 271.381 369.838 272.241C369.504 272.241 369.17 272.241 368.826 272.241C368.659 272.909 368.492 273.577 368.32 274.265C367.986 274.265 367.652 274.265 367.308 274.265C367.141 274.766 366.974 275.267 366.802 275.783C366.468 275.783 366.134 275.783 365.79 275.783C365.623 276.284 365.457 276.784 365.285 277.3C364.951 277.3 364.617 277.3 364.273 277.3C364.106 277.801 363.939 278.302 363.767 278.818C363.433 278.818 363.099 278.818 362.755 278.818C362.588 279.319 362.421 279.82 362.249 280.336C361.915 280.336 361.581 280.336 361.237 280.336C361.07 280.837 360.903 281.338 360.731 281.854C358.989 283.372 358.989 283.372 357.696 283.372C357.696 283.705 357.696 284.039 357.696 284.383C356.855 285.061 356.011 285.735 355.166 286.407C354.832 286.825 354.498 287.242 354.154 287.672C353.09 289.002 351.939 289.9 350.613 290.96C349.923 291.792 349.247 292.634 348.589 293.49C347.767 294.407 347.767 294.407 347.071 295.008C346.737 295.008 346.403 295.008 346.059 295.008C345.879 295.437 345.879 295.437 345.696 295.876C344.905 297.285 343.936 298.222 342.771 299.34C341.492 300.571 340.47 301.62 339.482 303.103C339.148 303.103 338.814 303.103 338.47 303.103C338.303 303.604 338.136 304.105 337.964 304.621C337.63 304.621 337.297 304.621 336.952 304.621C336.786 305.121 336.619 305.622 336.447 306.138C335.601 306.972 335.601 306.972 334.549 307.846C333.289 308.91 332.082 309.971 330.945 311.166C329.869 312.209 329.869 312.209 328.858 312.209C328.858 312.543 328.858 312.877 328.858 313.221C328.017 313.899 327.173 314.573 326.328 315.245C325.994 315.662 325.66 316.08 325.316 316.51C324.252 317.84 323.101 318.738 321.775 319.798C321.441 320.216 321.107 320.633 320.763 321.063C319.699 322.393 318.547 323.291 317.221 324.352C316.673 325.04 316.673 325.04 316.115 325.743C315.812 326.119 315.509 326.494 315.198 326.881C314.864 326.881 314.53 326.881 314.186 326.881C314.014 327.288 314.014 327.288 313.838 327.704C312.943 329.322 311.89 330.57 310.644 331.941C310.31 331.941 309.976 331.941 309.632 331.941C309.465 332.442 309.298 332.942 309.126 333.458C308.792 333.458 308.459 333.458 308.115 333.458C307.948 333.959 307.781 334.46 307.609 334.976C307.275 334.976 306.941 334.976 306.597 334.976C306.43 335.477 306.263 335.978 306.091 336.494C305.757 336.494 305.423 336.494 305.079 336.494C304.912 336.995 304.745 337.496 304.573 338.012C304.239 338.012 303.905 338.012 303.561 338.012C303.394 338.513 303.227 339.014 303.055 339.53C302.721 339.53 302.387 339.53 302.043 339.53C301.876 340.031 301.709 340.531 301.537 341.047C301.204 341.047 300.87 341.047 300.526 341.047C300.526 341.381 300.526 341.715 300.526 342.059C299.601 342.844 299.601 342.844 298.375 343.735C296.601 345.069 295.319 346.382 293.949 348.13C291.214 350.154 291.214 350.154 289.901 350.154C289.734 350.655 289.567 351.156 289.395 351.672C289.061 351.672 288.727 351.672 288.383 351.672C288.216 352.173 288.049 352.674 287.877 353.19C287.543 353.19 287.21 353.19 286.866 353.19C286.631 353.659 286.631 353.659 286.391 354.138C286.043 354.834 285.696 355.53 285.348 356.225C285.643 356.225 285.938 356.224 286.241 356.224C303.706 356.19 321.172 356.164 338.637 356.148C340.732 356.146 342.828 356.144 344.923 356.142C345.549 356.141 345.549 356.141 346.188 356.141C352.949 356.134 359.71 356.122 366.472 356.108C373.406 356.094 380.34 356.086 387.275 356.082C391.556 356.08 395.837 356.074 400.118 356.061C403.051 356.053 405.984 356.051 408.917 356.053C410.611 356.054 412.305 356.052 413.999 356.044C415.833 356.037 417.666 356.039 419.5 356.043C420.039 356.038 420.578 356.034 421.133 356.029C421.868 356.034 421.868 356.034 422.617 356.039C423.04 356.038 423.464 356.037 423.9 356.037C425.25 356.272 425.699 356.647 426.502 357.743C426.668 359.356 426.668 359.356 426.628 361.285C426.623 361.62 426.617 361.955 426.612 362.301C426.548 365.179 426.329 368.038 425.996 370.897C425.662 370.897 425.328 370.897 424.984 370.897C425 371.695 425 371.695 425.016 372.51C424.99 374.098 424.85 375.435 424.478 376.968C424.144 376.968 423.81 376.968 423.466 376.968C423.299 378.471 423.132 379.974 422.96 381.522C422.627 381.522 422.293 381.522 421.949 381.522C421.782 382.69 421.615 383.859 421.443 385.063C421.109 385.063 420.775 385.063 420.431 385.063C420.264 386.065 420.097 387.067 419.925 388.099C419.591 388.099 419.257 388.099 418.913 388.099C418.746 389.101 418.579 390.102 418.407 391.134C418.073 391.134 417.739 391.134 417.395 391.134C417.333 391.541 417.27 391.948 417.205 392.368C417.101 392.795 416.997 393.223 416.889 393.664C416.388 393.914 416.388 393.914 415.877 394.17C415.71 394.671 415.543 395.172 415.371 395.688C415.038 395.688 414.704 395.688 414.36 395.688C414.193 396.189 414.026 396.689 413.854 397.206C413.52 397.206 413.186 397.206 412.842 397.206C412.696 397.498 412.55 397.79 412.399 398.091C412.211 398.467 412.023 398.842 411.83 399.229C411.692 399.547 411.555 399.866 411.413 400.194C410.71 401.445 409.906 402.209 408.826 403.15C408.303 403.616 408.303 403.616 407.769 404.091C406.771 404.794 406.771 404.794 405.253 404.794C405.086 405.295 404.919 405.796 404.747 406.312C403.755 407.124 403.755 407.124 402.534 407.925C402.133 408.193 401.733 408.461 401.32 408.737C400.194 409.348 400.194 409.348 398.676 409.348C398.676 409.682 398.676 410.016 398.676 410.36C397.781 410.7 396.885 411.037 395.988 411.372C395.489 411.559 394.99 411.747 394.476 411.941C393.111 412.383 393.111 412.383 391.593 412.383C391.593 412.717 391.593 413.051 391.593 413.395C390.09 413.562 388.588 413.729 387.039 413.901C387.039 414.235 387.039 414.569 387.039 414.913C385.036 415.08 383.033 415.247 380.968 415.419C380.968 415.753 380.968 416.087 380.968 416.431C376.511 417.075 372.062 417.006 367.57 416.998C366.665 416.998 365.759 416.998 364.854 416.999C362.372 417 359.89 416.998 357.409 416.995C354.73 416.993 352.051 416.994 349.373 416.994C344.734 416.995 340.096 416.993 335.457 416.99C328.75 416.986 322.043 416.985 315.337 416.984C304.455 416.983 293.574 416.98 282.692 416.975C272.122 416.97 261.553 416.967 250.983 416.965C250.331 416.964 249.68 416.964 249.008 416.964C245.739 416.963 242.47 416.963 239.201 416.962C212.085 416.957 184.969 416.948 157.854 416.937C157.854 416.436 157.854 415.935 157.854 415.419C157.52 415.419 157.186 415.419 156.842 415.419C156.842 414.918 156.842 414.417 156.842 413.901C157.176 413.901 157.51 413.901 157.854 413.901C157.906 413.306 157.958 412.712 158.012 412.099C158.273 409.942 158.942 408.265 159.877 406.312C160.211 406.312 160.545 406.312 160.889 406.312C161.004 406.051 161.119 405.79 161.237 405.522C162.749 402.713 164.425 400.674 166.96 398.723C167.461 398.097 167.461 398.097 167.972 397.458C169.036 396.128 170.188 395.231 171.514 394.17C172.015 393.544 172.015 393.544 172.526 392.905C173.59 391.575 174.741 390.677 176.067 389.617C176.568 388.99 176.568 388.99 177.079 388.352C178.143 387.022 179.294 386.124 180.62 385.063C181.121 384.437 181.121 384.437 181.632 383.798C182.705 382.458 183.764 381.486 185.174 380.51C185.675 380.51 186.176 380.51 186.692 380.51C186.859 380.009 187.026 379.508 187.198 378.992C187.531 378.992 187.865 378.992 188.209 378.992C188.376 378.491 188.543 377.99 188.715 377.474C189.049 377.474 189.383 377.474 189.727 377.474C189.894 376.973 190.061 376.473 190.233 375.957C190.567 375.957 190.901 375.957 191.245 375.957C191.245 375.456 191.245 374.955 191.245 374.439C192.064 373.572 192.912 372.733 193.775 371.909C194.192 371.398 194.609 370.886 195.039 370.36C196.22 368.972 197.415 367.977 198.834 366.85C199.335 366.224 199.335 366.224 199.846 365.585C200.91 364.255 202.061 363.357 203.387 362.296C203.888 361.67 203.888 361.67 204.399 361.032C205.463 359.702 206.615 358.804 207.941 357.743C208.403 357.148 208.403 357.148 208.875 356.541C209.976 355.199 211.086 354.241 212.462 353.19C213.904 352.069 215.282 350.972 216.541 349.648C216.875 349.314 217.209 348.98 217.553 348.636C217.887 348.636 218.221 348.636 218.565 348.636C218.732 348.135 218.899 347.635 219.071 347.119C219.405 347.119 219.739 347.119 220.083 347.119C220.25 346.618 220.417 346.117 220.589 345.601C220.923 345.601 221.257 345.601 221.601 345.601C221.768 345.1 221.935 344.599 222.107 344.083C222.441 344.083 222.774 344.083 223.118 344.083C223.118 343.582 223.118 343.081 223.118 342.565C223.938 341.672 224.763 340.859 225.648 340.036C228.065 337.684 228.065 337.684 230.265 335.134C231.304 333.853 232.458 332.969 233.743 331.941C234.244 331.315 234.244 331.315 234.755 330.676C235.819 329.346 236.97 328.448 238.296 327.387C238.63 326.97 238.964 326.553 239.308 326.123C240.372 324.792 241.524 323.895 242.85 322.834C243.142 322.448 243.434 322.062 243.735 321.664C245.366 319.716 247.318 318.176 249.427 316.763C249.761 316.763 250.095 316.763 250.439 316.763C250.606 316.262 250.773 315.761 250.945 315.245C251.278 315.245 251.612 315.245 251.956 315.245C252.123 314.744 252.29 314.243 252.462 313.727C252.796 313.727 253.13 313.727 253.474 313.727C253.665 313.305 253.665 313.305 253.86 312.874C254.588 311.513 255.453 310.38 256.415 309.174C256.752 308.746 257.089 308.318 257.437 307.877C258.553 306.622 259.741 305.652 261.063 304.621C261.397 304.203 261.731 303.786 262.075 303.356C263.139 302.026 264.29 301.128 265.617 300.067C265.95 299.65 266.284 299.232 266.628 298.802C267.692 297.472 268.844 296.575 270.17 295.514C270.504 295.096 270.838 294.679 271.182 294.249C272.246 292.919 273.397 292.021 274.723 290.96C275.015 290.574 275.308 290.188 275.609 289.791C277.239 287.843 279.191 286.302 281.3 284.889C281.634 284.889 281.968 284.889 282.312 284.889C282.479 284.388 282.646 283.888 282.818 283.372C283.152 283.372 283.486 283.372 283.83 283.372C283.997 282.871 284.164 282.37 284.336 281.854C284.67 281.854 285.004 281.854 285.348 281.854C285.539 281.431 285.539 281.431 285.733 281C286.461 279.64 287.327 278.507 288.288 277.3C288.626 276.873 288.963 276.445 289.31 276.004C290.427 274.748 291.615 273.778 292.937 272.747C293.271 272.33 293.605 271.912 293.949 271.482C295.013 270.152 296.164 269.255 297.49 268.194C297.824 267.776 298.158 267.359 298.502 266.929C299.566 265.599 300.717 264.701 302.043 263.64C302.351 263.244 302.659 262.847 302.976 262.439C304.413 260.69 306.096 259.466 307.893 258.107C309.185 257.087 309.185 257.087 310.202 255.672C310.515 255.296 310.828 254.921 311.15 254.534C311.651 254.534 312.152 254.534 312.668 254.534C312.835 254.033 313.002 253.532 313.174 253.016C313.508 253.016 313.842 253.016 314.186 253.016C314.353 252.515 314.52 252.014 314.692 251.498C315.026 251.498 315.359 251.498 315.703 251.498C315.87 250.997 316.037 250.496 316.209 249.98C316.543 249.98 316.877 249.98 317.221 249.98C317.388 249.479 317.555 248.979 317.727 248.462C318.061 248.462 318.395 248.462 318.739 248.462C318.739 247.962 318.739 247.461 318.739 246.945C319.558 246.051 320.383 245.238 321.269 244.415C323.685 242.064 323.685 242.064 325.885 239.514C326.924 238.233 328.078 237.348 329.364 236.32C329.697 235.903 330.031 235.485 330.375 235.055C331.439 233.725 332.591 232.828 333.917 231.767C334.22 231.381 334.522 230.995 334.834 230.597C336.358 228.725 338.153 227.254 339.988 225.696C340.323 225.398 340.657 225.101 341.002 224.795C341.314 224.518 341.627 224.241 341.949 223.957C342.229 223.707 342.509 223.457 342.798 223.2C343.53 222.66 343.53 222.66 344.541 222.66C344.708 222.159 344.875 221.658 345.047 221.142C345.381 221.142 345.715 221.142 346.059 221.142C346.226 220.641 346.393 220.141 346.565 219.625C346.899 219.625 347.233 219.625 347.577 219.625C347.744 219.124 347.911 218.623 348.083 218.107C348.417 218.107 348.751 218.107 349.095 218.107C349.262 217.606 349.429 217.105 349.601 216.589C349.935 216.589 350.269 216.589 350.613 216.589C350.613 216.088 350.613 215.587 350.613 215.071C351.437 214.374 352.281 213.699 353.142 213.047C353.309 212.714 353.476 212.38 353.648 212.036C354.149 212.036 354.65 212.036 355.166 212.036C355.333 211.535 355.5 211.034 355.672 210.518C356.006 210.518 356.34 210.518 356.684 210.518C356.851 210.017 357.018 209.516 357.19 209C357.524 209 357.857 209 358.202 209C358.368 208.499 358.535 207.998 358.707 207.482C359.041 207.482 359.375 207.482 359.719 207.482C359.886 206.981 360.053 206.481 360.225 205.964C360.559 205.964 360.893 205.964 361.237 205.964C361.404 205.464 361.571 204.963 361.743 204.447C362.077 204.447 362.411 204.447 362.755 204.447C362.755 204.113 362.755 203.779 362.755 203.435C363.506 203.184 363.506 203.184 364.273 202.929C364.44 202.595 364.607 202.261 364.779 201.917C366.321 201.403 367.462 201.311 369.079 201.285Z"/>
</mask>
<path d="M369.079 201.285C369.564 201.272 370.049 201.259 370.549 201.245C371.862 201.411 371.862 201.411 372.691 202.026C373.596 203.213 373.568 203.914 373.565 205.399C373.568 205.909 373.571 206.418 373.574 206.942C373.569 207.501 373.565 208.059 373.56 208.634C373.561 209.223 373.562 209.811 373.563 210.417C373.564 212.368 373.555 214.318 373.545 216.269C373.544 217.622 373.543 218.975 373.543 220.328C373.541 223.166 373.533 226.005 373.522 228.843C373.507 232.483 373.502 236.124 373.5 239.764C373.498 242.559 373.493 245.354 373.486 248.149C373.484 249.491 373.481 250.834 373.479 252.176C373.476 254.052 373.469 255.928 373.461 257.804C373.46 258.36 373.46 258.917 373.459 259.49C373.456 260.002 373.453 260.514 373.45 261.042C373.449 261.485 373.447 261.928 373.446 262.385C373.377 263.689 373.16 264.898 372.873 266.17C372.54 266.17 372.206 266.17 371.862 266.17C371.695 267.339 371.528 268.507 371.356 269.711C371.022 269.711 370.688 269.711 370.344 269.711C370.177 270.546 370.01 271.381 369.838 272.241C369.504 272.241 369.17 272.241 368.826 272.241C368.659 272.909 368.492 273.577 368.32 274.265C367.986 274.265 367.652 274.265 367.308 274.265C367.141 274.766 366.974 275.267 366.802 275.783C366.468 275.783 366.134 275.783 365.79 275.783C365.623 276.284 365.457 276.784 365.285 277.3C364.951 277.3 364.617 277.3 364.273 277.3C364.106 277.801 363.939 278.302 363.767 278.818C363.433 278.818 363.099 278.818 362.755 278.818C362.588 279.319 362.421 279.82 362.249 280.336C361.915 280.336 361.581 280.336 361.237 280.336C361.07 280.837 360.903 281.338 360.731 281.854C358.989 283.372 358.989 283.372 357.696 283.372C357.696 283.705 357.696 284.039 357.696 284.383C356.855 285.061 356.011 285.735 355.166 286.407C354.832 286.825 354.498 287.242 354.154 287.672C353.09 289.002 351.939 289.9 350.613 290.96C349.923 291.792 349.247 292.634 348.589 293.49C347.767 294.407 347.767 294.407 347.071 295.008C346.737 295.008 346.403 295.008 346.059 295.008C345.879 295.437 345.879 295.437 345.696 295.876C344.905 297.285 343.936 298.222 342.771 299.34C341.492 300.571 340.47 301.62 339.482 303.103C339.148 303.103 338.814 303.103 338.47 303.103C338.303 303.604 338.136 304.105 337.964 304.621C337.63 304.621 337.297 304.621 336.952 304.621C336.786 305.121 336.619 305.622 336.447 306.138C335.601 306.972 335.601 306.972 334.549 307.846C333.289 308.91 332.082 309.971 330.945 311.166C329.869 312.209 329.869 312.209 328.858 312.209C328.858 312.543 328.858 312.877 328.858 313.221C328.017 313.899 327.173 314.573 326.328 315.245C325.994 315.662 325.66 316.08 325.316 316.51C324.252 317.84 323.101 318.738 321.775 319.798C321.441 320.216 321.107 320.633 320.763 321.063C319.699 322.393 318.547 323.291 317.221 324.352C316.673 325.04 316.673 325.04 316.115 325.743C315.812 326.119 315.509 326.494 315.198 326.881C314.864 326.881 314.53 326.881 314.186 326.881C314.014 327.288 314.014 327.288 313.838 327.704C312.943 329.322 311.89 330.57 310.644 331.941C310.31 331.941 309.976 331.941 309.632 331.941C309.465 332.442 309.298 332.942 309.126 333.458C308.792 333.458 308.459 333.458 308.115 333.458C307.948 333.959 307.781 334.46 307.609 334.976C307.275 334.976 306.941 334.976 306.597 334.976C306.43 335.477 306.263 335.978 306.091 336.494C305.757 336.494 305.423 336.494 305.079 336.494C304.912 336.995 304.745 337.496 304.573 338.012C304.239 338.012 303.905 338.012 303.561 338.012C303.394 338.513 303.227 339.014 303.055 339.53C302.721 339.53 302.387 339.53 302.043 339.53C301.876 340.031 301.709 340.531 301.537 341.047C301.204 341.047 300.87 341.047 300.526 341.047C300.526 341.381 300.526 341.715 300.526 342.059C299.601 342.844 299.601 342.844 298.375 343.735C296.601 345.069 295.319 346.382 293.949 348.13C291.214 350.154 291.214 350.154 289.901 350.154C289.734 350.655 289.567 351.156 289.395 351.672C289.061 351.672 288.727 351.672 288.383 351.672C288.216 352.173 288.049 352.674 287.877 353.19C287.543 353.19 287.21 353.19 286.866 353.19C286.631 353.659 286.631 353.659 286.391 354.138C286.043 354.834 285.696 355.53 285.348 356.225C285.643 356.225 285.938 356.224 286.241 356.224C303.706 356.19 321.172 356.164 338.637 356.148C340.732 356.146 342.828 356.144 344.923 356.142C345.549 356.141 345.549 356.141 346.188 356.141C352.949 356.134 359.71 356.122 366.472 356.108C373.406 356.094 380.34 356.086 387.275 356.082C391.556 356.08 395.837 356.074 400.118 356.061C403.051 356.053 405.984 356.051 408.917 356.053C410.611 356.054 412.305 356.052 413.999 356.044C415.833 356.037 417.666 356.039 419.5 356.043C420.039 356.038 420.578 356.034 421.133 356.029C421.868 356.034 421.868 356.034 422.617 356.039C423.04 356.038 423.464 356.037 423.9 356.037C425.25 356.272 425.699 356.647 426.502 357.743C426.668 359.356 426.668 359.356 426.628 361.285C426.623 361.62 426.617 361.955 426.612 362.301C426.548 365.179 426.329 368.038 425.996 370.897C425.662 370.897 425.328 370.897 424.984 370.897C425 371.695 425 371.695 425.016 372.51C424.99 374.098 424.85 375.435 424.478 376.968C424.144 376.968 423.81 376.968 423.466 376.968C423.299 378.471 423.132 379.974 422.96 381.522C422.627 381.522 422.293 381.522 421.949 381.522C421.782 382.69 421.615 383.859 421.443 385.063C421.109 385.063 420.775 385.063 420.431 385.063C420.264 386.065 420.097 387.067 419.925 388.099C419.591 388.099 419.257 388.099 418.913 388.099C418.746 389.101 418.579 390.102 418.407 391.134C418.073 391.134 417.739 391.134 417.395 391.134C417.333 391.541 417.27 391.948 417.205 392.368C417.101 392.795 416.997 393.223 416.889 393.664C416.388 393.914 416.388 393.914 415.877 394.17C415.71 394.671 415.543 395.172 415.371 395.688C415.038 395.688 414.704 395.688 414.36 395.688C414.193 396.189 414.026 396.689 413.854 397.206C413.52 397.206 413.186 397.206 412.842 397.206C412.696 397.498 412.55 397.79 412.399 398.091C412.211 398.467 412.023 398.842 411.83 399.229C411.692 399.547 411.555 399.866 411.413 400.194C410.71 401.445 409.906 402.209 408.826 403.15C408.303 403.616 408.303 403.616 407.769 404.091C406.771 404.794 406.771 404.794 405.253 404.794C405.086 405.295 404.919 405.796 404.747 406.312C403.755 407.124 403.755 407.124 402.534 407.925C402.133 408.193 401.733 408.461 401.32 408.737C400.194 409.348 400.194 409.348 398.676 409.348C398.676 409.682 398.676 410.016 398.676 410.36C397.781 410.7 396.885 411.037 395.988 411.372C395.489 411.559 394.99 411.747 394.476 411.941C393.111 412.383 393.111 412.383 391.593 412.383C391.593 412.717 391.593 413.051 391.593 413.395C390.09 413.562 388.588 413.729 387.039 413.901C387.039 414.235 387.039 414.569 387.039 414.913C385.036 415.08 383.033 415.247 380.968 415.419C380.968 415.753 380.968 416.087 380.968 416.431C376.511 417.075 372.062 417.006 367.57 416.998C366.665 416.998 365.759 416.998 364.854 416.999C362.372 417 359.89 416.998 357.409 416.995C354.73 416.993 352.051 416.994 349.373 416.994C344.734 416.995 340.096 416.993 335.457 416.99C328.75 416.986 322.043 416.985 315.337 416.984C304.455 416.983 293.574 416.98 282.692 416.975C272.122 416.97 261.553 416.967 250.983 416.965C250.331 416.964 249.68 416.964 249.008 416.964C245.739 416.963 242.47 416.963 239.201 416.962C212.085 416.957 184.969 416.948 157.854 416.937C157.854 416.436 157.854 415.935 157.854 415.419C157.52 415.419 157.186 415.419 156.842 415.419C156.842 414.918 156.842 414.417 156.842 413.901C157.176 413.901 157.51 413.901 157.854 413.901C157.906 413.306 157.958 412.712 158.012 412.099C158.273 409.942 158.942 408.265 159.877 406.312C160.211 406.312 160.545 406.312 160.889 406.312C161.004 406.051 161.119 405.79 161.237 405.522C162.749 402.713 164.425 400.674 166.96 398.723C167.461 398.097 167.461 398.097 167.972 397.458C169.036 396.128 170.188 395.231 171.514 394.17C172.015 393.544 172.015 393.544 172.526 392.905C173.59 391.575 174.741 390.677 176.067 389.617C176.568 388.99 176.568 388.99 177.079 388.352C178.143 387.022 179.294 386.124 180.62 385.063C181.121 384.437 181.121 384.437 181.632 383.798C182.705 382.458 183.764 381.486 185.174 380.51C185.675 380.51 186.176 380.51 186.692 380.51C186.859 380.009 187.026 379.508 187.198 378.992C187.531 378.992 187.865 378.992 188.209 378.992C188.376 378.491 188.543 377.99 188.715 377.474C189.049 377.474 189.383 377.474 189.727 377.474C189.894 376.973 190.061 376.473 190.233 375.957C190.567 375.957 190.901 375.957 191.245 375.957C191.245 375.456 191.245 374.955 191.245 374.439C192.064 373.572 192.912 372.733 193.775 371.909C194.192 371.398 194.609 370.886 195.039 370.36C196.22 368.972 197.415 367.977 198.834 366.85C199.335 366.224 199.335 366.224 199.846 365.585C200.91 364.255 202.061 363.357 203.387 362.296C203.888 361.67 203.888 361.67 204.399 361.032C205.463 359.702 206.615 358.804 207.941 357.743C208.403 357.148 208.403 357.148 208.875 356.541C209.976 355.199 211.086 354.241 212.462 353.19C213.904 352.069 215.282 350.972 216.541 349.648C216.875 349.314 217.209 348.98 217.553 348.636C217.887 348.636 218.221 348.636 218.565 348.636C218.732 348.135 218.899 347.635 219.071 347.119C219.405 347.119 219.739 347.119 220.083 347.119C220.25 346.618 220.417 346.117 220.589 345.601C220.923 345.601 221.257 345.601 221.601 345.601C221.768 345.1 221.935 344.599 222.107 344.083C222.441 344.083 222.774 344.083 223.118 344.083C223.118 343.582 223.118 343.081 223.118 342.565C223.938 341.672 224.763 340.859 225.648 340.036C228.065 337.684 228.065 337.684 230.265 335.134C231.304 333.853 232.458 332.969 233.743 331.941C234.244 331.315 234.244 331.315 234.755 330.676C235.819 329.346 236.97 328.448 238.296 327.387C238.63 326.97 238.964 326.553 239.308 326.123C240.372 324.792 241.524 323.895 242.85 322.834C243.142 322.448 243.434 322.062 243.735 321.664C245.366 319.716 247.318 318.176 249.427 316.763C249.761 316.763 250.095 316.763 250.439 316.763C250.606 316.262 250.773 315.761 250.945 315.245C251.278 315.245 251.612 315.245 251.956 315.245C252.123 314.744 252.29 314.243 252.462 313.727C252.796 313.727 253.13 313.727 253.474 313.727C253.665 313.305 253.665 313.305 253.86 312.874C254.588 311.513 255.453 310.38 256.415 309.174C256.752 308.746 257.089 308.318 257.437 307.877C258.553 306.622 259.741 305.652 261.063 304.621C261.397 304.203 261.731 303.786 262.075 303.356C263.139 302.026 264.29 301.128 265.617 300.067C265.95 299.65 266.284 299.232 266.628 298.802C267.692 297.472 268.844 296.575 270.17 295.514C270.504 295.096 270.838 294.679 271.182 294.249C272.246 292.919 273.397 292.021 274.723 290.96C275.015 290.574 275.308 290.188 275.609 289.791C277.239 287.843 279.191 286.302 281.3 284.889C281.634 284.889 281.968 284.889 282.312 284.889C282.479 284.388 282.646 283.888 282.818 283.372C283.152 283.372 283.486 283.372 283.83 283.372C283.997 282.871 284.164 282.37 284.336 281.854C284.67 281.854 285.004 281.854 285.348 281.854C285.539 281.431 285.539 281.431 285.733 281C286.461 279.64 287.327 278.507 288.288 277.3C288.626 276.873 288.963 276.445 289.31 276.004C290.427 274.748 291.615 273.778 292.937 272.747C293.271 272.33 293.605 271.912 293.949 271.482C295.013 270.152 296.164 269.255 297.49 268.194C297.824 267.776 298.158 267.359 298.502 266.929C299.566 265.599 300.717 264.701 302.043 263.64C302.351 263.244 302.659 262.847 302.976 262.439C304.413 260.69 306.096 259.466 307.893 258.107C309.185 257.087 309.185 257.087 310.202 255.672C310.515 255.296 310.828 254.921 311.15 254.534C311.651 254.534 312.152 254.534 312.668 254.534C312.835 254.033 313.002 253.532 313.174 253.016C313.508 253.016 313.842 253.016 314.186 253.016C314.353 252.515 314.52 252.014 314.692 251.498C315.026 251.498 315.359 251.498 315.703 251.498C315.87 250.997 316.037 250.496 316.209 249.98C316.543 249.98 316.877 249.98 317.221 249.98C317.388 249.479 317.555 248.979 317.727 248.462C318.061 248.462 318.395 248.462 318.739 248.462C318.739 247.962 318.739 247.461 318.739 246.945C319.558 246.051 320.383 245.238 321.269 244.415C323.685 242.064 323.685 242.064 325.885 239.514C326.924 238.233 328.078 237.348 329.364 236.32C329.697 235.903 330.031 235.485 330.375 235.055C331.439 233.725 332.591 232.828 333.917 231.767C334.22 231.381 334.522 230.995 334.834 230.597C336.358 228.725 338.153 227.254 339.988 225.696C340.323 225.398 340.657 225.101 341.002 224.795C341.314 224.518 341.627 224.241 341.949 223.957C342.229 223.707 342.509 223.457 342.798 223.2C343.53 222.66 343.53 222.66 344.541 222.66C344.708 222.159 344.875 221.658 345.047 221.142C345.381 221.142 345.715 221.142 346.059 221.142C346.226 220.641 346.393 220.141 346.565 219.625C346.899 219.625 347.233 219.625 347.577 219.625C347.744 219.124 347.911 218.623 348.083 218.107C348.417 218.107 348.751 218.107 349.095 218.107C349.262 217.606 349.429 217.105 349.601 216.589C349.935 216.589 350.269 216.589 350.613 216.589C350.613 216.088 350.613 215.587 350.613 215.071C351.437 214.374 352.281 213.699 353.142 213.047C353.309 212.714 353.476 212.38 353.648 212.036C354.149 212.036 354.65 212.036 355.166 212.036C355.333 211.535 355.5 211.034 355.672 210.518C356.006 210.518 356.34 210.518 356.684 210.518C356.851 210.017 357.018 209.516 357.19 209C357.524 209 357.857 209 358.202 209C358.368 208.499 358.535 207.998 358.707 207.482C359.041 207.482 359.375 207.482 359.719 207.482C359.886 206.981 360.053 206.481 360.225 205.964C360.559 205.964 360.893 205.964 361.237 205.964C361.404 205.464 361.571 204.963 361.743 204.447C362.077 204.447 362.411 204.447 362.755 204.447C362.755 204.113 362.755 203.779 362.755 203.435C363.506 203.184 363.506 203.184 364.273 202.929C364.44 202.595 364.607 202.261 364.779 201.917C366.321 201.403 367.462 201.311 369.079 201.285Z" fill="#503BEA" stroke="#503BEA" stroke-width="2" mask="url(#path-1-inside-1_0_1)"/>
<path d="M160.619 95.0447C160.993 95.046 161.366 95.0473 161.751 95.0487C162.147 95.0481 162.542 95.0476 162.949 95.0469C164.29 95.0456 165.632 95.0479 166.973 95.0501C167.938 95.0499 168.902 95.0495 169.867 95.0488C172.531 95.0477 175.195 95.0497 177.858 95.0523C180.726 95.0544 183.594 95.0537 186.461 95.0533C191.434 95.053 196.407 95.0546 201.38 95.0575C208.57 95.0616 215.76 95.0629 222.949 95.0635C234.613 95.0647 246.277 95.068 257.941 95.0728C269.275 95.0774 280.608 95.081 291.942 95.0832C292.291 95.0832 292.64 95.0833 293 95.0834C296.506 95.084 300.012 95.0847 303.518 95.0853C332.938 95.0906 362.358 95.0995 391.778 95.111C391.778 95.4449 391.778 95.7788 391.778 96.1228C392.279 96.2898 392.78 96.4567 393.296 96.6288C393.311 98.6419 393.319 100.655 393.327 102.668C393.332 103.233 393.336 103.798 393.34 104.381C393.349 107.577 393.216 110.662 392.79 113.83C392.456 113.83 392.122 113.83 391.778 113.83C391.794 114.629 391.794 114.629 391.809 115.443C391.783 117.031 391.644 118.368 391.272 119.901C390.938 119.901 390.604 119.901 390.26 119.901C390.093 121.404 389.926 122.907 389.754 124.455C389.42 124.455 389.086 124.455 388.742 124.455C388.575 125.624 388.408 126.792 388.236 127.996C387.902 127.996 387.569 127.996 387.225 127.996C387.058 128.998 386.891 130 386.719 131.032C386.385 131.032 386.051 131.032 385.707 131.032C385.54 132.034 385.373 133.035 385.201 134.067C384.867 134.067 384.533 134.067 384.189 134.067C384.022 135.069 383.855 136.071 383.683 137.103C383.349 137.103 383.015 137.103 382.671 137.103C382.577 137.713 382.577 137.713 382.481 138.336C382.377 138.764 382.273 139.192 382.165 139.633C381.831 139.8 381.497 139.967 381.153 140.139C380.986 140.639 380.819 141.14 380.647 141.656C380.314 141.656 379.98 141.656 379.636 141.656C379.489 141.949 379.343 142.241 379.193 142.542C379.005 142.917 378.817 143.293 378.624 143.68C378.457 144.045 378.29 144.411 378.118 144.787C377.612 145.704 377.612 145.704 376.6 146.21C376.433 146.711 376.266 147.212 376.094 147.728C375.76 147.728 375.426 147.728 375.082 147.728C374.915 148.228 374.748 148.729 374.576 149.245C374.242 149.245 373.908 149.245 373.564 149.245C373.533 149.621 373.502 149.997 373.47 150.384C372.928 152.215 372.042 152.672 370.529 153.799C369.842 154.632 369.167 155.475 368.505 156.328C367.831 157.003 367.156 157.677 366.481 158.352C366.148 158.853 365.814 159.354 365.47 159.87C365.136 159.87 364.802 159.87 364.458 159.87C364.291 160.371 364.124 160.872 363.952 161.388C363.618 161.388 363.284 161.388 362.94 161.388C362.773 161.888 362.606 162.389 362.434 162.905C362.1 162.905 361.766 162.905 361.422 162.905C361.255 163.406 361.088 163.907 360.916 164.423C360.582 164.423 360.248 164.423 359.904 164.423C359.737 164.924 359.57 165.425 359.398 165.941C359.065 165.941 358.731 165.941 358.387 165.941C358.22 166.442 358.053 166.943 357.881 167.459C357.547 167.459 357.213 167.459 356.869 167.459C356.787 167.905 356.787 167.905 356.703 168.36C355.828 171.249 353.078 173.248 350.798 175.048C350.464 175.465 350.13 175.882 349.786 176.313C348.722 177.643 347.57 178.54 346.244 179.601C345.879 180.06 345.514 180.519 345.138 180.992C344.835 181.368 344.532 181.744 344.221 182.131C343.887 182.131 343.553 182.131 343.209 182.131C343.042 182.799 342.875 183.466 342.703 184.154C342.369 184.154 342.035 184.154 341.691 184.154C341.524 184.655 341.357 185.156 341.185 185.672C340.851 185.672 340.517 185.672 340.173 185.672C340.006 186.173 339.839 186.674 339.667 187.19C339.333 187.19 338.999 187.19 338.655 187.19C338.488 187.691 338.321 188.192 338.149 188.708C337.815 188.708 337.482 188.708 337.138 188.708C336.971 189.209 336.804 189.71 336.632 190.226C336.298 190.226 335.964 190.226 335.62 190.226C335.453 190.726 335.286 191.227 335.114 191.743C334.78 191.743 334.446 191.743 334.102 191.743C333.935 192.244 333.768 192.745 333.596 193.261C333.262 193.261 332.928 193.261 332.584 193.261C332.417 193.762 332.25 194.263 332.078 194.779C331.744 194.779 331.41 194.779 331.066 194.779C331.035 195.155 331.004 195.53 330.972 195.917C330.43 197.749 329.544 198.206 328.031 199.332C327.697 199.75 327.363 200.167 327.019 200.597C325.955 201.927 324.804 202.825 323.477 203.886C323.144 204.303 322.81 204.72 322.466 205.15C321.402 206.481 320.25 207.378 318.924 208.439C318.59 208.856 318.256 209.274 317.912 209.704C316.848 211.034 315.697 211.932 314.371 212.992C313.823 213.681 313.823 213.681 313.264 214.384C312.961 214.759 312.659 215.135 312.347 215.522C312.013 215.522 311.679 215.522 311.335 215.522C311.189 215.825 311.043 216.127 310.892 216.439C310.323 217.546 310.323 217.546 309.311 219.063C308.978 219.063 308.644 219.063 308.3 219.063C308.133 219.564 307.966 220.065 307.794 220.581C307.46 220.581 307.126 220.581 306.782 220.581C306.615 221.082 306.448 221.583 306.276 222.099C305.942 222.099 305.608 222.099 305.264 222.099C305.097 222.6 304.93 223.101 304.758 223.617C304.424 223.617 304.09 223.617 303.746 223.617C303.579 224.118 303.412 224.619 303.24 225.135C302.906 225.135 302.572 225.135 302.228 225.135C302.061 225.636 301.895 226.136 301.723 226.652C301.389 226.652 301.055 226.652 300.711 226.652C300.544 227.153 300.377 227.654 300.205 228.17C299.871 228.17 299.537 228.17 299.193 228.17C299.026 228.671 298.859 229.172 298.687 229.688C298.353 229.688 298.019 229.688 297.675 229.688C297.508 230.189 297.341 230.69 297.169 231.206C296.835 231.206 296.501 231.206 296.157 231.206C295.99 231.707 295.823 232.208 295.651 232.724C295.317 232.724 294.984 232.724 294.64 232.724C294.473 233.224 294.306 233.725 294.134 234.241C293.8 234.241 293.466 234.241 293.122 234.241C292.955 234.742 292.788 235.243 292.616 235.759C292.282 235.759 291.948 235.759 291.604 235.759C291.437 236.26 291.27 236.761 291.098 237.277C290.764 237.277 290.43 237.277 290.086 237.277C289.919 237.778 289.752 238.279 289.58 238.795C289.246 238.795 288.912 238.795 288.568 238.795C288.401 239.296 288.234 239.796 288.062 240.312C287.729 240.312 287.395 240.312 287.051 240.312C286.884 240.813 286.717 241.314 286.545 241.83C286.211 241.83 285.877 241.83 285.533 241.83C285.366 242.331 285.199 242.832 285.027 243.348C284.693 243.348 284.359 243.348 284.015 243.348C283.848 243.849 283.681 244.35 283.509 244.866C283.175 244.866 282.841 244.866 282.497 244.866C282.497 245.367 282.497 245.868 282.497 246.384C281.678 247.25 280.83 248.089 279.968 248.913C279.55 249.425 279.133 249.936 278.703 250.463C277.522 251.85 276.327 252.845 274.908 253.973C274.574 254.39 274.24 254.807 273.896 255.237C272.832 256.567 271.681 257.465 270.355 258.526C270.021 258.943 269.687 259.361 269.343 259.791C268.279 261.121 267.128 262.018 265.802 263.079C265.468 263.497 265.134 263.914 264.79 264.344C263.726 265.674 262.574 266.572 261.248 267.633C260.914 268.05 260.58 268.467 260.236 268.897C259.172 270.228 258.021 271.125 256.695 272.186C256.361 272.603 256.027 273.021 255.683 273.451C254.619 274.781 253.468 275.679 252.141 276.739C251.808 277.157 251.474 277.574 251.13 278.004C250.066 279.334 248.914 280.232 247.588 281.293C246.899 282.124 246.223 282.966 245.564 283.822C244.742 284.739 244.742 284.739 244.047 285.34C243.713 285.34 243.379 285.34 243.035 285.34C242.889 285.643 242.743 285.945 242.592 286.257C242.023 287.364 242.023 287.364 241.011 288.882C240.677 288.882 240.343 288.882 239.999 288.882C239.832 289.383 239.665 289.883 239.493 290.399C239.159 290.399 238.825 290.399 238.481 290.399C238.314 290.9 238.147 291.401 237.975 291.917C237.642 291.917 237.308 291.917 236.964 291.917C236.797 292.418 236.63 292.919 236.458 293.435C236.124 293.435 235.79 293.435 235.446 293.435C235.279 293.936 235.112 294.437 234.94 294.953C234.606 294.953 234.272 294.953 233.928 294.953C233.761 295.454 233.594 295.955 233.422 296.471C233.088 296.471 232.754 296.471 232.41 296.471C232.243 296.971 232.076 297.472 231.904 297.988C231.57 297.988 231.237 297.988 230.892 297.988C230.726 298.489 230.559 298.99 230.387 299.506C230.053 299.506 229.719 299.506 229.375 299.506C229.208 300.007 229.041 300.508 228.869 301.024C228.535 301.024 228.201 301.024 227.857 301.024C227.69 301.525 227.523 302.026 227.351 302.542C227.017 302.542 226.683 302.542 226.339 302.542C226.172 303.043 226.005 303.543 225.833 304.06C225.499 304.06 225.165 304.06 224.821 304.06C224.654 304.56 224.487 305.061 224.315 305.577C223.981 305.577 223.648 305.577 223.304 305.577C223.137 306.078 222.97 306.579 222.798 307.095C222.464 307.095 222.13 307.095 221.786 307.095C221.619 307.596 221.452 308.097 221.28 308.613C220.946 308.613 220.612 308.613 220.268 308.613C220.101 309.114 219.934 309.615 219.762 310.131C219.428 310.131 219.094 310.131 218.75 310.131C218.583 310.632 218.416 311.132 218.244 311.648C217.91 311.648 217.576 311.648 217.232 311.648C217.065 312.149 216.898 312.65 216.726 313.166C216.393 313.166 216.059 313.166 215.715 313.166C215.548 313.667 215.381 314.168 215.209 314.684C214.875 314.684 214.541 314.684 214.197 314.684C214.03 315.185 213.863 315.686 213.691 316.202C213.357 316.202 213.023 316.202 212.679 316.202C212.512 316.703 212.345 317.204 212.173 317.72C211.839 317.72 211.505 317.72 211.161 317.72C210.994 318.22 210.827 318.721 210.655 319.237C210.321 319.237 209.987 319.237 209.643 319.237C209.476 319.738 209.31 320.239 209.138 320.755C208.804 320.755 208.47 320.755 208.126 320.755C207.959 321.256 207.792 321.757 207.62 322.273C207.286 322.273 206.952 322.273 206.608 322.273C206.441 322.774 206.274 323.275 206.102 323.791C205.768 323.791 205.434 323.791 205.09 323.791C204.923 324.292 204.756 324.792 204.584 325.309C204.25 325.309 203.916 325.309 203.572 325.309C203.405 325.809 203.238 326.31 203.066 326.826C202.732 326.826 202.399 326.826 202.055 326.826C201.888 327.327 201.721 327.828 201.549 328.344C201.215 328.344 200.881 328.344 200.537 328.344C200.37 328.845 200.203 329.346 200.031 329.862C199.697 329.862 199.363 329.862 199.019 329.862C198.852 330.363 198.685 330.864 198.513 331.38C198.179 331.38 197.845 331.38 197.501 331.38C197.334 331.881 197.167 332.381 196.995 332.897C196.661 332.897 196.327 332.897 195.983 332.897C195.983 333.398 195.983 333.899 195.983 334.415C195.164 335.309 194.339 336.121 193.454 336.945C191.037 339.296 191.037 339.296 188.837 341.846C187.798 343.127 186.644 344.012 185.359 345.04C184.858 345.666 184.858 345.666 184.347 346.305C183.283 347.635 182.132 348.532 180.806 349.593C180.305 350.219 180.305 350.219 179.794 350.858C178.73 352.188 177.578 353.086 176.252 354.146C175.918 354.564 175.584 354.981 175.24 355.411C174.176 356.741 173.025 357.639 171.699 358.7C171.365 359.117 171.031 359.535 170.687 359.965C169.623 361.295 168.471 362.192 167.145 363.253C166.812 363.671 166.478 364.088 166.134 364.518C165.069 365.848 163.918 366.746 162.592 367.806C162.258 368.224 161.924 368.641 161.58 369.071C160.516 370.401 159.365 371.299 158.039 372.36C157.705 372.777 157.371 373.195 157.027 373.625C155.963 374.955 154.811 375.852 153.485 376.913C153.151 377.331 152.818 377.748 152.473 378.178C151.409 379.508 150.258 380.406 148.932 381.467C148.598 381.884 148.264 382.301 147.92 382.731C146.859 384.058 145.707 384.971 144.379 386.02C144.045 386.521 143.711 387.022 143.367 387.538C143.033 387.538 142.699 387.538 142.355 387.538C142.12 388.007 142.12 388.007 141.881 388.486C141.533 389.182 141.185 389.878 140.837 390.573C140.503 390.573 140.169 390.573 139.825 390.573C139.658 391.074 139.491 391.575 139.319 392.091C138.985 392.091 138.652 392.091 138.307 392.091C138.141 392.592 137.974 393.093 137.802 393.609C135.617 396.024 135.617 396.024 133.754 396.644C133.587 397.145 133.42 397.646 133.248 398.162C132.914 398.162 132.58 398.162 132.236 398.162C132.069 398.663 131.902 399.164 131.73 399.68C131.396 399.68 131.063 399.68 130.719 399.68C130.552 400.181 130.385 400.682 130.213 401.198C129.879 401.198 129.545 401.198 129.201 401.198C129.034 401.699 128.867 402.2 128.695 402.716C128.361 402.716 128.027 402.716 127.683 402.716C127.516 403.216 127.349 403.717 127.177 404.233C126.843 404.233 126.509 404.233 126.165 404.233C125.998 404.734 125.831 405.235 125.659 405.751C125.325 405.751 124.991 405.751 124.647 405.751C124.48 406.252 124.313 406.753 124.141 407.269C123.808 407.269 123.474 407.269 123.13 407.269C122.963 407.77 122.796 408.271 122.624 408.787C122.29 408.787 121.956 408.787 121.612 408.787C121.445 409.288 121.278 409.788 121.106 410.304C120.379 411.158 120.379 411.158 119.588 411.822C119.254 411.822 118.92 411.822 118.576 411.822C118.409 412.323 118.242 412.824 118.07 413.34C117.736 413.34 117.402 413.34 117.058 413.34C116.891 413.841 116.725 414.342 116.553 414.858C116.052 414.858 115.551 414.858 115.035 414.858C115.035 415.192 115.035 415.526 115.035 415.87C113.518 416.375 112.493 416.445 110.907 416.457C110.375 416.462 109.844 416.467 109.296 416.472C108.722 416.474 108.148 416.476 107.556 416.478C106.967 416.481 106.378 416.484 105.77 416.487C104.523 416.492 103.276 416.495 102.03 416.497C100.117 416.502 98.2057 416.518 96.2936 416.534C95.0835 416.537 93.8733 416.54 92.6632 416.542C92.0893 416.548 91.5153 416.554 90.924 416.561C90.3922 416.559 89.8604 416.558 89.3124 416.556C88.844 416.558 88.3756 416.56 87.893 416.562C86.7027 416.376 86.7027 416.376 85.792 415.781C84.9475 414.497 84.999 413.582 85.0046 412.05C85.0031 411.474 85.0016 410.897 85 410.304C85.0094 409.367 85.0094 409.367 85.0189 408.411C85.0204 407.444 85.0204 407.444 85.0218 406.457C85.0252 405.089 85.0314 403.72 85.0426 402.351C85.0568 400.616 85.0625 398.881 85.0647 397.145C85.0674 395.472 85.0747 393.8 85.0822 392.127C85.0843 391.512 85.0865 390.898 85.0887 390.265C85.1816 378.94 85.1816 378.94 86.1968 377.925C86.3991 376.565 86.5769 375.211 86.7343 373.846C86.7803 373.462 86.8263 373.078 86.8737 372.683C86.9873 371.732 87.0982 370.781 87.2087 369.83C87.5426 369.83 87.8765 369.83 88.2205 369.83C88.3875 367.827 88.5544 365.823 88.7264 363.759C89.0604 363.759 89.3943 363.759 89.7383 363.759C89.9053 362.256 90.0722 360.754 90.2442 359.206C90.5781 359.206 90.9121 359.206 91.2561 359.206C91.303 358.517 91.303 358.517 91.3509 357.814C91.7966 354.575 93.3457 351.485 94.7976 348.581C95.1315 348.581 95.4654 348.581 95.8094 348.581C95.9764 347.579 96.1434 346.578 96.3154 345.546C96.6493 345.546 96.9832 345.546 97.3272 345.546C97.4942 344.878 97.6611 344.21 97.8332 343.522C98.1671 343.522 98.501 343.522 98.845 343.522C99.012 342.52 99.1789 341.518 99.3509 340.486C99.6849 340.486 100.019 340.486 100.363 340.486C100.509 340.1 100.655 339.714 100.805 339.316C101.375 337.957 101.375 337.957 102.387 336.439C102.72 336.439 103.054 336.439 103.398 336.439C103.565 335.771 103.732 335.103 103.904 334.415C104.238 334.415 104.572 334.415 104.916 334.415C105.031 334.06 105.146 333.706 105.264 333.34C106.099 331.511 107.087 330.323 108.458 328.85C108.792 328.85 109.125 328.85 109.47 328.85C109.636 328.182 109.803 327.514 109.975 326.826C110.309 326.826 110.643 326.826 110.987 326.826C111.154 326.325 111.321 325.825 111.493 325.309C111.827 325.309 112.161 325.309 112.505 325.309C112.672 324.808 112.839 324.307 113.011 323.791C113.345 323.791 113.679 323.791 114.023 323.791C114.19 323.29 114.357 322.789 114.529 322.273C114.863 322.273 115.197 322.273 115.541 322.273C115.708 321.772 115.875 321.271 116.047 320.755C116.381 320.755 116.714 320.755 117.058 320.755C117.225 320.254 117.392 319.753 117.564 319.237C117.898 319.237 118.232 319.237 118.576 319.237C118.743 318.736 118.91 318.236 119.082 317.72C119.416 317.72 119.75 317.72 120.094 317.72C120.261 317.219 120.428 316.718 120.6 316.202C120.934 316.202 121.268 316.202 121.612 316.202C121.779 315.701 121.946 315.2 122.118 314.684C122.452 314.684 122.786 314.684 123.13 314.684C123.297 314.183 123.464 313.682 123.636 313.166C123.969 313.166 124.303 313.166 124.647 313.166C124.647 312.665 124.647 312.164 124.647 311.648C125.467 310.782 126.315 309.943 127.177 309.119C127.594 308.607 128.012 308.096 128.442 307.569C129.623 306.182 130.818 305.187 132.236 304.06C132.737 303.433 132.737 303.433 133.248 302.795C134.312 301.465 135.464 300.567 136.79 299.506C137.291 298.88 137.291 298.88 137.802 298.241C138.866 296.911 140.017 296.014 141.343 294.953C141.844 294.327 141.844 294.327 142.355 293.688C143.419 292.358 144.57 291.46 145.896 290.399C146.397 289.773 146.397 289.773 146.908 289.135C147.972 287.805 149.124 286.907 150.45 285.846C150.951 285.22 150.951 285.22 151.462 284.581C152.521 283.257 153.673 282.335 155.003 281.293C155.17 280.959 155.337 280.625 155.509 280.281C155.843 280.281 156.177 280.281 156.521 280.281C156.667 279.978 156.813 279.676 156.964 279.364C157.533 278.257 157.533 278.257 158.545 276.739C158.879 276.739 159.212 276.739 159.556 276.739C159.723 276.238 159.89 275.738 160.062 275.222C160.396 275.222 160.73 275.222 161.074 275.222C161.241 274.721 161.408 274.22 161.58 273.704C161.914 273.704 162.248 273.704 162.592 273.704C162.759 273.203 162.926 272.702 163.098 272.186C163.432 272.186 163.766 272.186 164.11 272.186C164.277 271.685 164.444 271.184 164.616 270.668C164.95 270.668 165.284 270.668 165.628 270.668C165.795 270.167 165.962 269.666 166.134 269.15C166.467 269.15 166.801 269.15 167.145 269.15C167.312 268.65 167.479 268.149 167.651 267.633C167.985 267.633 168.319 267.633 168.663 267.633C168.83 267.132 168.997 266.631 169.169 266.115C169.503 266.115 169.837 266.115 170.181 266.115C170.348 265.614 170.515 265.113 170.687 264.597C171.021 264.597 171.355 264.597 171.699 264.597C171.866 264.096 172.033 263.595 172.205 263.079C172.539 263.079 172.873 263.079 173.217 263.079C173.384 262.578 173.55 262.078 173.723 261.562C174.056 261.562 174.39 261.562 174.734 261.562C174.901 261.061 175.068 260.56 175.24 260.044C175.574 260.044 175.908 260.044 176.252 260.044C176.419 259.543 176.586 259.042 176.758 258.526C177.092 258.526 177.426 258.526 177.77 258.526C177.937 258.025 178.104 257.524 178.276 257.008C178.61 257.008 178.944 257.008 179.288 257.008C179.455 256.507 179.622 256.006 179.794 255.49C180.128 255.49 180.461 255.49 180.806 255.49C180.972 254.989 181.139 254.489 181.311 253.973C181.645 253.973 181.979 253.973 182.323 253.973C182.49 253.472 182.657 252.971 182.829 252.455C183.163 252.455 183.497 252.455 183.841 252.455C184.008 251.954 184.175 251.453 184.347 250.937C184.681 250.937 185.015 250.937 185.359 250.937C185.526 250.436 185.693 249.935 185.865 249.419C186.199 249.419 186.533 249.419 186.877 249.419C186.877 248.918 186.877 248.417 186.877 247.901C187.509 247.206 187.509 247.206 188.394 246.384C188.864 245.773 188.864 245.773 189.343 245.15C190.441 243.827 191.609 242.901 192.948 241.83C193.449 241.204 193.449 241.204 193.96 240.565C195.024 239.235 196.175 238.338 197.501 237.277C198.002 236.651 198.002 236.651 198.513 236.012C199.577 234.682 200.728 233.784 202.055 232.724C202.555 232.097 202.555 232.097 203.066 231.459C204.126 230.134 205.278 229.213 206.608 228.17C206.775 227.836 206.942 227.502 207.114 227.158C207.448 227.158 207.782 227.158 208.126 227.158C208.257 226.855 208.389 226.552 208.525 226.239C209.179 225.059 209.793 224.478 210.845 223.648C212.353 222.412 213.492 221.103 214.703 219.569C215.54 218.888 216.382 218.212 217.232 217.546C217.399 217.212 217.566 216.878 217.738 216.534C218.072 216.534 218.406 216.534 218.75 216.534C218.896 216.231 219.042 215.929 219.193 215.617C219.762 214.51 219.762 214.51 220.774 212.992C221.108 212.992 221.442 212.992 221.786 212.992C221.953 212.491 222.12 211.991 222.292 211.475C222.626 211.475 222.96 211.475 223.304 211.475C223.47 210.974 223.637 210.473 223.809 209.957C224.143 209.957 224.477 209.957 224.821 209.957C224.988 209.456 225.155 208.955 225.327 208.439C225.661 208.439 225.995 208.439 226.339 208.439C226.506 207.938 226.673 207.437 226.845 206.921C227.179 206.921 227.513 206.921 227.857 206.921C228.024 206.42 228.191 205.919 228.363 205.403C228.697 205.403 229.031 205.403 229.375 205.403C229.542 204.903 229.709 204.402 229.881 203.886C230.215 203.886 230.548 203.886 230.892 203.886C231.059 203.385 231.226 202.884 231.398 202.368C231.732 202.368 232.066 202.368 232.41 202.368C232.577 201.867 232.744 201.366 232.916 200.85C233.25 200.85 233.584 200.85 233.928 200.85C234.095 200.349 234.262 199.848 234.434 199.332C234.768 199.332 235.102 199.332 235.446 199.332C235.613 198.831 235.78 198.331 235.952 197.814C236.286 197.814 236.62 197.814 236.964 197.814C237.089 197.533 237.214 197.251 237.343 196.961C238.826 194.218 241.017 192.035 243.541 190.226C243.875 190.226 244.209 190.226 244.553 190.226C244.72 189.725 244.886 189.224 245.058 188.708C245.392 188.708 245.726 188.708 246.07 188.708C246.237 188.207 246.404 187.706 246.576 187.19C246.91 187.19 247.244 187.19 247.588 187.19C247.755 186.689 247.922 186.188 248.094 185.672C248.428 185.672 248.762 185.672 249.106 185.672C249.273 185.171 249.44 184.67 249.612 184.154C249.946 184.154 250.28 184.154 250.624 184.154C250.624 183.654 250.624 183.153 250.624 182.637C251.443 181.77 252.291 180.931 253.153 180.107C253.571 179.596 253.988 179.084 254.418 178.558C255.599 177.17 256.794 176.175 258.213 175.048C258.9 174.215 259.575 173.372 260.236 172.518C260.911 171.843 261.585 171.169 262.26 170.494C262.594 169.993 262.928 169.493 263.272 168.977C263.606 168.977 263.94 168.977 264.284 168.977C264.451 168.476 264.618 167.975 264.79 167.459C265.124 167.459 265.458 167.459 265.802 167.459C265.969 166.958 266.135 166.457 266.307 165.941C266.641 165.941 266.975 165.941 267.319 165.941C267.486 165.44 267.653 164.939 267.825 164.423C268.159 164.423 268.493 164.423 268.837 164.423C269.004 163.922 269.171 163.421 269.343 162.905C269.677 162.905 270.011 162.905 270.355 162.905C270.522 162.405 270.689 161.904 270.861 161.388C271.195 161.388 271.529 161.388 271.873 161.388C271.873 161.054 271.873 160.72 271.873 160.376C274.135 158.352 274.135 158.352 275.414 158.352C275.414 158.018 275.414 157.684 275.414 157.34C275.077 157.34 274.739 157.339 274.391 157.339C254.391 157.309 234.391 157.272 214.391 157.224C211.991 157.219 209.592 157.213 207.192 157.207C206.715 157.206 206.237 157.205 205.745 157.204C198.002 157.186 190.259 157.174 182.516 157.163C174.576 157.152 166.635 157.135 158.695 157.113C153.792 157.1 148.889 157.091 143.987 157.088C140.628 157.085 137.27 157.077 133.911 157.064C131.972 157.057 130.032 157.052 128.092 157.054C125.992 157.056 123.892 157.047 121.793 157.036C121.175 157.038 120.557 157.041 119.921 157.043C119.361 157.039 118.801 157.034 118.224 157.029C117.497 157.027 117.497 157.027 116.754 157.026C115.541 156.834 115.541 156.834 114.625 156.146C113.729 154.912 113.843 153.925 113.857 152.415C113.859 151.843 113.862 151.27 113.865 150.68C113.875 150.081 113.886 149.483 113.896 148.866C113.899 148.275 113.902 147.684 113.904 147.075C113.976 139.174 113.976 139.174 115.035 138.115C115.2 137.275 115.344 136.431 115.477 135.585C115.932 132.949 116.637 130.502 117.564 127.996C117.898 127.996 118.232 127.996 118.576 127.996C118.743 126.661 118.91 125.325 119.082 123.949C119.416 123.949 119.75 123.949 120.094 123.949C120.261 122.947 120.428 121.945 120.6 120.913C120.934 120.913 121.268 120.913 121.612 120.913C121.683 120.375 121.683 120.375 121.756 119.826C122.181 118.131 122.893 116.993 123.857 115.538C124.169 115.062 124.482 114.586 124.804 114.095C125.086 113.674 125.368 113.253 125.659 112.818C125.993 112.318 126.327 111.817 126.671 111.301C127.005 111.301 127.339 111.301 127.683 111.301C127.933 110.549 127.933 110.549 128.189 109.783C128.523 109.783 128.857 109.783 129.201 109.783C129.451 109.032 129.451 109.032 129.707 108.265C130.041 108.265 130.375 108.265 130.719 108.265C130.969 107.514 130.969 107.514 131.224 106.747C132.056 106.222 132.9 105.717 133.754 105.23C134.025 104.948 134.297 104.666 134.576 104.376C135.272 103.712 135.272 103.712 136.79 103.712C136.79 103.378 136.79 103.044 136.79 102.7C137.218 102.491 137.645 102.283 138.086 102.067C139.32 101.44 140.456 100.798 141.628 100.075C143.294 99.1969 144.066 98.9365 145.896 99.1584C145.896 98.8245 145.896 98.4906 145.896 98.1465C149.786 96.9571 153.468 95.9614 157.533 95.6169C158.393 94.7565 159.471 95.0486 160.619 95.0447Z" fill="#E5E7EB"/>
</svg>
